<?xml version="1.0" encoding="UTF-8" standalone="no"?>
<svg
   xmlns:dc="http://purl.org/dc/elements/1.1/"
   xmlns:cc="http://creativecommons.org/ns#"
   xmlns:rdf="http://www.w3.org/1999/02/22-rdf-syntax-ns#"
   xmlns:svg="http://www.w3.org/2000/svg"
   xmlns="http://www.w3.org/2000/svg"
   xmlns:sodipodi="http://sodipodi.sourceforge.net/DTD/sodipodi-0.dtd"
   xmlns:inkscape="http://www.inkscape.org/namespaces/inkscape"
   width="309"
   height="191"
   viewBox="0 0 309 191"
   version="1.1"
   id="svg183"
   sodipodi:docname="Mask Group 17.svg"
   inkscape:version="0.92.4 (5da689c313, 2019-01-14)">
  <metadata
     id="metadata187">
    <rdf:RDF>
      <cc:Work
         rdf:about="">
        <dc:format>image/svg+xml</dc:format>
        <dc:type
           rdf:resource="http://purl.org/dc/dcmitype/StillImage" />
        <dc:title></dc:title>
      </cc:Work>
    </rdf:RDF>
  </metadata>
  <sodipodi:namedview
     pagecolor="#ffffff"
     bordercolor="#666666"
     borderopacity="1"
     objecttolerance="10"
     gridtolerance="10"
     guidetolerance="10"
     inkscape:pageopacity="0"
     inkscape:pageshadow="2"
     inkscape:window-width="1920"
     inkscape:window-height="1001"
     id="namedview185"
     showgrid="false"
     fit-margin-top="0"
     fit-margin-left="0"
     fit-margin-right="0"
     fit-margin-bottom="0"
     inkscape:zoom="1.5879598"
     inkscape:cx="167.29705"
     inkscape:cy="10.836086"
     inkscape:window-x="-9"
     inkscape:window-y="-9"
     inkscape:window-maximized="1"
     inkscape:current-layer="Mask_Group_17" />
  <defs
     id="defs74">
    <clipPath
       id="clip-path">
      <rect
         id="Rectangle_254"
         data-name="Rectangle 254"
         width="1400"
         height="195"
         transform="translate(100,5663)"
         x="0"
         y="0"
         style="fill:#6b42ac;stroke:#e6e6e6;stroke-width:1" />
    </clipPath>
    <filter
       id="Rectangle_231"
       x="594"
       y="135"
       width="223"
       height="195"
       filterUnits="userSpaceOnUse">
      <feOffset
         input="SourceAlpha"
         id="feOffset4" />
      <feGaussianBlur
         stdDeviation="5"
         result="blur"
         id="feGaussianBlur6" />
      <feFlood
         flood-color="#343742"
         flood-opacity="0.031"
         id="feFlood8" />
      <feComposite
         operator="in"
         in2="blur"
         id="feComposite10"
         result="result1" />
      <feComposite
         in="SourceGraphic"
         in2="result1"
         id="feComposite12" />
    </filter>
    <filter
       id="Rectangle_233"
       x="508"
       y="97"
       width="146"
       height="110"
       filterUnits="userSpaceOnUse">
      <feOffset
         input="SourceAlpha"
         id="feOffset15" />
      <feGaussianBlur
         stdDeviation="5"
         result="blur-2"
         id="feGaussianBlur17" />
      <feFlood
         flood-color="#343742"
         flood-opacity="0.012"
         id="feFlood19" />
      <feComposite
         operator="in"
         in2="blur-2"
         id="feComposite21"
         result="result1" />
      <feComposite
         in="SourceGraphic"
         in2="result1"
         id="feComposite23" />
    </filter>
    <filter
       id="Rectangle_234"
       x="594"
       y="-8"
       width="157"
       height="161"
       filterUnits="userSpaceOnUse">
      <feOffset
         input="SourceAlpha"
         id="feOffset26" />
      <feGaussianBlur
         stdDeviation="5"
         result="blur-3"
         id="feGaussianBlur28" />
      <feFlood
         flood-color="#343742"
         flood-opacity="0.02"
         id="feFlood30" />
      <feComposite
         operator="in"
         in2="blur-3"
         id="feComposite32"
         result="result1" />
      <feComposite
         in="SourceGraphic"
         in2="result1"
         id="feComposite34" />
    </filter>
    <clipPath
       id="clip-path-2">
      <rect
         id="Rectangle_252"
         data-name="Rectangle 252"
         width="102"
         height="66"
         rx="6"
         transform="translate(653,1853)"
         x="0"
         y="0"
         style="fill:#dbeafe" />
    </clipPath>
    <clipPath
       id="clip-path-3">
      <rect
         id="Rectangle_278"
         data-name="Rectangle 278"
         width="440"
         height="340"
         transform="translate(1060,971)"
         x="0"
         y="0"
         style="fill:#ffffff" />
    </clipPath>
    <filter
       id="Rectangle_256"
       x="634"
       y="147"
       width="223"
       height="195"
       filterUnits="userSpaceOnUse">
      <feOffset
         input="SourceAlpha"
         id="feOffset41" />
      <feGaussianBlur
         stdDeviation="5"
         result="blur-4"
         id="feGaussianBlur43" />
      <feFlood
         flood-color="#343742"
         flood-opacity="0.031"
         id="feFlood45" />
      <feComposite
         operator="in"
         in2="blur-4"
         id="feComposite47"
         result="result1" />
      <feComposite
         in="SourceGraphic"
         in2="result1"
         id="feComposite49" />
    </filter>
    <filter
       id="Rectangle_259"
       x="634"
       y="4"
       width="157"
       height="161"
       filterUnits="userSpaceOnUse">
      <feOffset
         input="SourceAlpha"
         id="feOffset52" />
      <feGaussianBlur
         stdDeviation="5"
         result="blur-5"
         id="feGaussianBlur54" />
      <feFlood
         flood-color="#343742"
         flood-opacity="0.02"
         id="feFlood56" />
      <feComposite
         operator="in"
         in2="blur-5"
         id="feComposite58"
         result="result1" />
      <feComposite
         in="SourceGraphic"
         in2="result1"
         id="feComposite60" />
    </filter>
    <filter
       id="Rectangle_258"
       x="548"
       y="107"
       width="146"
       height="110"
       filterUnits="userSpaceOnUse">
      <feOffset
         input="SourceAlpha"
         id="feOffset63" />
      <feGaussianBlur
         stdDeviation="5"
         result="blur-6"
         id="feGaussianBlur65" />
      <feFlood
         flood-color="#343742"
         flood-opacity="0.012"
         id="feFlood67" />
      <feComposite
         operator="in"
         in2="blur-6"
         id="feComposite69"
         result="result1" />
      <feComposite
         in="SourceGraphic"
         in2="result1"
         id="feComposite71" />
    </filter>
  </defs>
  <g
     id="Mask_Group_17"
     data-name="Mask Group 17"
     transform="translate(-648,-5667)"
     clip-path="url(#clip-path)">
    <g
       id="Group_839"
       data-name="Group 839"
       transform="translate(-900,4551)" />
    <rect
       id="Rectangle_255"
       data-name="Rectangle 255"
       width="1415"
       height="245"
       x="192.68535"
       y="5911.8228"
       style="fill:#f7f8fc" />
    <g
       id="Group_849"
       data-name="Group 849"
       transform="translate(-470,4547)"
       clip-path="url(#clip-path-3)">
      <g
         id="Group_848"
         data-name="Group 848"
         transform="translate(36,48)">
        <g
           transform="translate(534,1068)"
           id="g128"
           style="filter:url(#Rectangle_256)">
          <rect
             id="Rectangle_256-2"
             data-name="Rectangle 256"
             width="193"
             height="165"
             rx="6"
             transform="translate(649,162)"
             x="0"
             y="0"
             style="fill:#f8f9fd" />
        </g>
        <rect
           id="Rectangle_257"
           data-name="Rectangle 257"
           width="61"
           height="53"
           rx="6"
           transform="translate(1194,1241)"
           x="0"
           y="0"
           style="fill:#e3e8f5" />
        <g
           id="Group_841"
           data-name="Group 841"
           transform="translate(250,-254)">
          <g
             transform="translate(284,1322)"
             id="g132"
             style="filter:url(#Rectangle_259)">
            <rect
               id="Rectangle_259-2"
               data-name="Rectangle 259"
               width="127"
               height="131"
               rx="6"
               transform="translate(649,19)"
               x="0"
               y="0"
               style="fill:#ffffff" />
          </g>
          <rect
             id="Rectangle_260"
             data-name="Rectangle 260"
             width="112"
             height="74"
             rx="5"
             transform="translate(941,1349)"
             x="0"
             y="0"
             style="fill:#dbeafe" />
          <rect
             id="Rectangle_261"
             data-name="Rectangle 261"
             width="108"
             height="11"
             rx="5.5"
             transform="translate(943,1429)"
             x="0"
             y="0"
             style="fill:#b6d2f5" />
          <rect
             id="Rectangle_262"
             data-name="Rectangle 262"
             width="46"
             height="11"
             rx="5.5"
             transform="translate(1005,1455)"
             x="0"
             y="0"
             style="fill:#b6d2f5" />
          <rect
             id="Rectangle_263"
             data-name="Rectangle 263"
             width="108"
             height="6"
             rx="3"
             transform="translate(943,1444)"
             x="0"
             y="0"
             style="fill:#d5e4f6" />
          <rect
             id="Rectangle_264"
             data-name="Rectangle 264"
             width="26"
             height="6"
             rx="3"
             transform="translate(943,1455)"
             x="0"
             y="0"
             style="fill:#d5e4f6" />
          <g
             id="Group_857"
             data-name="Group 857"
             transform="translate(967.975,1342.669)">
            <path
               id="Path_204"
               data-name="Path 204"
               d="M 50.342,57.393 H 0 V 37.256 L 24.182,20.6 a 2.014,2.014 0 0 1 2.295,0.007 l 23.865,16.649 z"
               inkscape:connector-curvature="0"
               style="fill:#85a3fb" />
            <path
               id="Path_205"
               data-name="Path 205"
               d="m 449.561,431.334 h 0.671 a 1.343,1.343 0 0 0 1.342,-1.342 v -0.671 a 2.014,2.014 0 0 1 -2.013,2.013 z"
               transform="translate(-401.232,-365.102)"
               inkscape:connector-curvature="0"
               style="fill:#d15241" />
            <path
               id="Path_206"
               data-name="Path 206"
               d="M 114.3,91.237 H 81.481 V 62.515 A 2.014,2.014 0 0 1 83.495,60.5 h 28.8 a 2.014,2.014 0 0 1 2.014,2.014 v 28.723 z"
               transform="translate(-72.722,-35.932)"
               inkscape:connector-curvature="0"
               style="fill:#f8f9fd" />
            <path
               id="Path_207"
               data-name="Path 207"
               d="M 48.329,207.5 H 2.014 A 2.014,2.014 0 0 1 0,205.482 V 178.52 l 50.342,26.962 a 2.014,2.014 0 0 1 -2.013,2.018 z"
               transform="translate(0,-141.264)"
               inkscape:connector-curvature="0"
               style="fill:#a5c5fc" />
            <path
               id="Path_208"
               data-name="Path 208"
               d="m 2.976,206.563 a 2.008,2.008 0 0 0 1.694,0.932 H 50.985 A 2.014,2.014 0 0 0 53,205.482 V 178.52 Z"
               transform="translate(-2.656,-141.264)"
               inkscape:connector-curvature="0"
               style="fill:#85a3fb" />
            <g
               id="Group_857-2"
               data-name="Group 857"
               transform="translate(15.103,28.403)">
              <path
                 id="Path_209"
                 data-name="Path 209"
                 d="m 159.954,97.506 h -18.795 a 0.671,0.671 0 0 1 -0.671,-0.671 v 0 a 0.671,0.671 0 0 1 0.671,-0.671 h 18.794 a 0.671,0.671 0 0 1 0.671,0.671 v 0 a 0.671,0.671 0 0 1 -0.67,0.671 z"
                 transform="translate(-140.488,-96.164)"
                 inkscape:connector-curvature="0"
                 style="fill:#d5e4f6" />
              <path
                 id="Path_210"
                 data-name="Path 210"
                 d="m 178.643,138.186 h -13.676 a 0.671,0.671 0 0 1 -0.671,-0.671 v 0 a 0.671,0.671 0 0 1 0.671,-0.671 h 13.676 a 0.671,0.671 0 0 1 0.671,0.671 v 0 a 0.671,0.671 0 0 1 -0.671,0.671 z"
                 transform="translate(-161.737,-132.471)"
                 inkscape:connector-curvature="0"
                 style="fill:#d5e4f6" />
              <path
                 id="Path_211"
                 data-name="Path 211"
                 d="m 159.954,178.866 h -18.795 a 0.671,0.671 0 0 1 -0.671,-0.671 v 0 a 0.671,0.671 0 0 1 0.671,-0.671 h 18.794 a 0.671,0.671 0 0 1 0.671,0.671 v 0 a 0.671,0.671 0 0 1 -0.67,0.671 z"
                 transform="translate(-140.488,-168.778)"
                 inkscape:connector-curvature="0"
                 style="fill:#d5e4f6" />
              <path
                 id="Path_212"
                 data-name="Path 212"
                 d="m 178.643,219.546 h -13.676 a 0.671,0.671 0 0 1 -0.671,-0.671 v 0 a 0.671,0.671 0 0 1 0.671,-0.671 h 13.676 a 0.671,0.671 0 0 1 0.671,0.671 v 0 a 0.671,0.671 0 0 1 -0.671,0.671 z"
                 transform="translate(-161.737,-205.084)"
                 inkscape:connector-curvature="0"
                 style="fill:#d5e4f6" />
            </g>
          </g>
        </g>
        <rect
           id="Rectangle_265"
           data-name="Rectangle 265"
           width="103"
           height="13"
           rx="6.5"
           transform="translate(1264,1243)"
           x="0"
           y="0"
           style="fill:#e3e8f5" />
        <rect
           id="Rectangle_266"
           data-name="Rectangle 266"
           width="103"
           height="13"
           rx="6.5"
           transform="translate(1264,1309)"
           x="0"
           y="0"
           style="fill:#e3e8f5" />
        <rect
           id="Rectangle_267"
           data-name="Rectangle 267"
           width="27"
           height="9"
           rx="4.5"
           transform="translate(1264,1267)"
           x="0"
           y="0"
           style="fill:#dbeafe" />
        <rect
           id="Rectangle_268"
           data-name="Rectangle 268"
           width="27"
           height="9"
           rx="4.5"
           transform="translate(1264,1329)"
           x="0"
           y="0"
           style="fill:#dbeafe" />
        <rect
           id="Rectangle_269"
           data-name="Rectangle 269"
           width="103"
           height="9"
           rx="4.5"
           transform="translate(1264,1285)"
           x="0"
           y="0"
           style="fill:#e5e7f5" />
        <rect
           id="Rectangle_270"
           data-name="Rectangle 270"
           width="103"
           height="9"
           rx="4.5"
           transform="translate(1264,1347)"
           x="0"
           y="0"
           style="fill:#e5e7f5" />
        <rect
           id="Rectangle_271"
           data-name="Rectangle 271"
           width="27"
           height="9"
           rx="4.5"
           transform="translate(1300,1267)"
           x="0"
           y="0"
           style="fill:#e7f3ff" />
        <rect
           id="Rectangle_272"
           data-name="Rectangle 272"
           width="27"
           height="9"
           rx="4.5"
           transform="translate(1300,1329)"
           x="0"
           y="0"
           style="fill:#e7f3ff" />
        <g
           transform="translate(534,1068)"
           id="g160"
           style="filter:url(#Rectangle_258)">
          <rect
             id="Rectangle_258-2"
             data-name="Rectangle 258"
             width="116"
             height="80"
             rx="6"
             transform="translate(563,122)"
             x="0"
             y="0"
             style="fill:#ffffff" />
        </g>
        <g
           id="Group_847"
           data-name="Group 847"
           transform="translate(451,-656)">
          <path
             id="Rectangle_273"
             data-name="Rectangle 273"
             d="m 6,0 h 90 a 6,6 0 0 1 6,6 V 66 H 0 V 6 A 6,6 0 0 1 6,0 Z"
             transform="translate(653,1853)"
             inkscape:connector-curvature="0"
             style="fill:#dbeafe" />
          <g
             id="Mask_Group_18"
             data-name="Mask Group 18"
             clip-path="url(#clip-path-2)">
            <g
               id="Group_846"
               data-name="Group 846"
               transform="translate(0,2)">
              <g
                 id="Group_844"
                 data-name="Group 844">
                <g
                   id="Group_842"
                   data-name="Group 842">
                  <rect
                     id="Rectangle_274"
                     data-name="Rectangle 274"
                     width="32"
                     height="28"
                     transform="translate(653,1889)"
                     x="0"
                     y="0"
                     style="fill:#d5e4f6" />
                  <path
                     id="Path_199"
                     data-name="Path 199"
                     d="m 3332.987,1889 h 40.135 l -8.375,-14.087 h -31.759 z"
                     transform="translate(-2680)"
                     inkscape:connector-curvature="0"
                     style="fill:#b5d1f6" />
                </g>
                <circle
                   id="Ellipse_55"
                   data-name="Ellipse 55"
                   cx="8.5"
                   cy="8.5"
                   r="8.5"
                   transform="translate(699,1875)"
                   style="fill:#d4e3f3" />
                <circle
                   id="Ellipse_56"
                   data-name="Ellipse 56"
                   cx="8.5"
                   cy="8.5"
                   r="8.5"
                   transform="translate(725,1875)"
                   style="fill:#b6d1fa" />
                <g
                   id="Group_843"
                   data-name="Group 843"
                   transform="translate(14.5,0.5)">
                  <line
                     id="Line_102"
                     data-name="Line 102"
                     y2="8"
                     transform="translate(719.5,1879.5)"
                     x1="0"
                     y1="0"
                     x2="0"
                     style="fill:none;stroke:#d9e1f6;stroke-width:1" />
                  <line
                     id="Line_103"
                     data-name="Line 103"
                     x2="8"
                     transform="translate(715.5,1883.5)"
                     x1="0"
                     y1="0"
                     y2="0"
                     style="fill:none;stroke:#d9e1f6;stroke-width:1" />
                </g>
                <rect
                   id="Rectangle_275"
                   data-name="Rectangle 275"
                   width="15"
                   height="5"
                   rx="2.5"
                   transform="translate(700,1897)"
                   x="0"
                   y="0"
                   style="fill:#d4e3f3" />
                <rect
                   id="Rectangle_276"
                   data-name="Rectangle 276"
                   width="15"
                   height="5"
                   rx="2.5"
                   transform="translate(726,1897)"
                   x="0"
                   y="0"
                   style="fill:#b6d1fa" />
              </g>
              <g
                 id="Group_845"
                 data-name="Group 845"
                 transform="translate(-11.5,0.5)">
                <line
                   id="Line_104"
                   data-name="Line 104"
                   y2="8"
                   transform="translate(719.5,1879.5)"
                   x1="0"
                   y1="0"
                   x2="0"
                   style="fill:none;stroke:#b1d1f5;stroke-width:1" />
                <line
                   id="Line_105"
                   data-name="Line 105"
                   x2="8"
                   transform="translate(715.5,1883.5)"
                   x1="0"
                   y1="0"
                   y2="0"
                   style="fill:none;stroke:#b1d1f5;stroke-width:1" />
              </g>
            </g>
          </g>
        </g>
      </g>
    </g>
  </g>
</svg>
