<svg xmlns="http://www.w3.org/2000/svg" viewBox="0 0 324 315" width="100" height="97">
	<defs>
		<clipPath clipPathUnits="userSpaceOnUse" id="cp1">
			<path d="M1.93 26L289 26L289 313.95L1.93 313.95L1.93 26Z" />
		</clipPath>
	</defs>
	<style>
		tspan { white-space:pre }
		.shp0 { fill: #ffffff } 
		.shp1 { fill: #f29400 } 
	</style>
	<g id="surface1">
		<path id="Layer" class="shp0" d="M-242 -249L568 -249L568 561L-242 561L-242 -249Z" />
		<path id="Layer" class="shp0" d="M-242 -249L568 -249L568 561L-242 561L-242 -249Z" />
		<path id="Layer" class="shp0" d="M-242 -249L568 -249L568 561L-242 561L-242 -249Z" />
		<g id="Clip-Path" clip-path="url(#cp1)">
			<g id="Layer">
				<path id="Layer" class="shp1" d="M245.8 313.95L44.98 313.95C21.21 313.98 1.93 294.68 1.93 270.88L1.93 69.81C1.93 46.04 21.21 26.74 44.98 26.74L178.73 26.74C180.86 26.74 182.6 28.51 182.57 30.67C182.57 32.81 180.83 34.52 178.73 34.55L44.98 34.55C25.51 34.55 9.73 50.34 9.73 69.81L9.73 270.88C9.73 290.35 25.51 306.14 44.98 306.17L245.8 306.17C265.24 306.14 281.02 290.35 281.02 270.88L281.02 135.77C281.13 133.63 282.95 131.95 285.11 132.07C287.11 132.18 288.7 133.77 288.79 135.77L288.79 270.88C288.79 294.66 269.54 313.95 245.8 313.95Z" />
			</g>
		</g>
		<path id="Layer" class="shp1" d="M132.24 185.45C121.73 180.38 112.62 172.86 105.62 163.5C101.29 157.66 93.04 156.49 87.23 160.86C87.2 160.86 87.17 160.88 87.17 160.88C80.08 166.27 72.77 171.32 65.22 176.02C59.07 179.89 57.19 188.02 61.06 194.18C61.46 194.8 61.89 195.4 62.4 195.95C80.82 216.67 97.33 239.04 111.71 262.76C114.1 266.72 118.37 269.12 122.98 269.12L152.45 269.12C157.91 269.12 162.84 265.72 164.78 260.62C196.58 176.79 243.66 99.63 303.65 33.07C307.98 28.48 312.9 24.46 318.25 21.1C322.61 18.36 323.92 12.6 321.18 8.21C319.85 6.1 317.71 4.59 315.23 4.05C285.23 -2.42 254.14 8.64 234.95 32.64C198.05 78.82 166.54 129.04 141.06 182.38C139.5 185.65 135.57 187.05 132.29 185.48C132.27 185.48 132.24 185.48 132.24 185.45Z" />
	</g>
</svg>